<?xml version="1.0" encoding="utf-8"?>
<!-- Generator: Adobe Illustrator 22.0.1, SVG Export Plug-In . SVG Version: 6.00 Build 0)  -->
<svg version="1.0" id="Calque_1" 
	 xmlns="http://www.w3.org/2000/svg" xmlns:xlink="http://www.w3.org/1999/xlink" x="0px" y="0px" viewBox="0 0 1190.6 240"
	 style="enable-background:new 0 0 1190.6 240;" xml:space="preserve">
<style type="text/css">
	.st0{fill:#007D3F;}
</style>
<metadata>
	<sfw>
		<slices></slices>
		<sliceSourceBounds  bottomLeftOrigin="true" height="158.3" width="993.4" x="117.4" y="29.9"></sliceSourceBounds>
	</sfw>
</metadata>
<g>
	<path class="st0" d="M395.4,81.7c-6.1,1.5-11.6,4.4-16.3,8.3v-8.4h-20.5V155h20.5c0,0,0-19.5,0-30.9c0-17.6,10.2-24.1,22.2-24.1
		h3.9V80.4C401.9,80.4,398.5,80.9,395.4,81.7z M149,153.4c0,4-3.3,7.3-7.3,7.3c-3.3,0-6.1-2.2-7-5.2l-17.3,11.3
		c4.7,8.6,13.9,14.4,24.4,14.4c15.1,0,27.3-12,27.8-27l0,0V81.5H149V153.4z M159.2,51.8c-3.4,0-6.2,1.2-8.5,3.5s-3.5,5.2-3.5,8.5
		c0,3.4,1.2,6.2,3.5,8.5s5.2,3.5,8.5,3.5c3.4,0,6.2-1.2,8.5-3.5s3.5-5.2,3.5-8.5c0-3.4-1.2-6.2-3.5-8.5
		C165.4,52.9,162.6,51.8,159.2,51.8z M220.7,80.4c-20.9,0-37.8,16.9-37.8,37.8s16.9,37.8,37.8,37.8s37.8-16.9,37.8-37.8
		C258.6,97.4,241.6,80.4,220.7,80.4z M220.7,136.5c-10.1,0-18.2-8.2-18.2-18.2c0-10.1,8.2-18.2,18.2-18.2c10.1,0,18.2,8.2,18.2,18.2
		C239,128.3,230.8,136.5,220.7,136.5z M320.3,120.6c0,9.8-6.1,15.8-13.8,15.8c-7.7,0-13.8-5.8-13.8-15.8c0-5.9,0-39,0-39h-20.6v46
		c0,15.8,12.8,28.5,28.5,28.5c7.6,0,14.5-2.6,19.6-9.5v8.4h20.6V81.6h-20.6C320.3,81.6,320.3,110.9,320.3,120.6z"/>
	<path class="st0" d="M1107.2,126.4c-2.2-0.8-3.8,3.1-5.7,5.8c-3.4,5-7.5,9.4-12.3,13.2c-3.3,2.6-7.2,4.8-11.1,6.2
		c-6.7,2.5-16.8,4.4-20.1-3.8c-0.5-1.3-0.9-2.6-1.1-4c-0.8-4.1,1.9-5.6,1.9-5.6c3.2-3.2,5.6-12,6.9-15.4s3.2-10.9,3.4-12.6
		c0.2-1.8-2.6-2.3-3.7-2.5c-1.2-0.2-2.1,1.3-3.3,3.5c-1.2,2.2-3,5.8-5.7,11.7c-2.8,5.9-2.7,11.2-2.7,13.4c0,1.2-1.1,2.5-1.9,3.3
		c-2.5,2.6-5.7,4.5-8.9,6.1c-2.6,1.3-5.9,2.7-8.8,2.1c-1.3-0.2-2.9-1.1-3.6-2.2c-3.9-5.2,2.4-20.7,2.4-20.7c2.8-5.4,0.6-5.4-0.9-6
		s-2-1.1-3.4,1.6c-1.5,2.8-3.3,6.2-7.6,6.9c-4.3,0.7-2.2-6-2.2-9c0-3.1-2.4-2.6-4.1-2.1c-1.7,0.5-1.5,8.4-2.2,13.2
		c-0.4,2.7-2.2,5.7-3.8,7.7l0,0c-0.2,0.3-0.3,0.5-0.5,0.7c-0.9,1.2-1.6,1.9-1.6,1.9c-3.4,3.1-6.3,0.7-6.3,0.7
		c-2.5-1.9-2.1-16.6-0.4-22c1.7-5.6-0.7-4.7-2.8-5.3c-2.2-0.5-2.3,1.8-3.2,5.2c-0.9,3.4-3.9,11.8-6.7,16.3s-3.8,4.1-4.9,2.8
		c-1.1-1.3-0.3-13.2,0.2-18.3c0.5-5-1-4.9-3-4.8c-2,0.2-1.9,1-2.1,3.5c-0.2,2.5-0.9,6.4-3.1,14.2c-1.7,6.1-4.2,9.7-5.2,11.1
		c-3.2,4.3-5.3-0.6-5.3-0.6c-2.6-7.1,0.2-21.4,1.6-31.8c0.2-1.7,0.4-3.2,0.6-4.6c2.2-4.4,15-4.9,22.3-6.6c7.3-1.8,22.5-6.3,30-8.2
		c7.5-1.9,6.3-5.6,6.3-5.6c-2.2-3-6.3,0.3-14.1,2.7c-6.6,2-11.8,4.3-25,7.7c0,0-11.8,2.7-15.6,3.1s-2-5.1-2-5.1
		c0.3-2.5-1.4-2.4-2.8-2.7c-1.5-0.3-1.9,0.9-2.4,1.9c-0.4,0.8-1.4,5.5-1.7,7c-5.4,0.6-6.8,0.7-6.8,0.7l-8.9-0.3
		c-4.4-0.8-4.1,2.1-4.1,2.1c-0.3,2,1.1,2.7,2.2,2.8c1.1,0.1,8.3-0.2,11.6-0.7c1.3-0.2,4.7-0.6,5.3-0.3c-1.5,8.6-3.7,14.1-6.2,22.7
		c-1.5,5.2-3,10.2-7.3,13.6c-1.4,1.1-3.7,3.3-5.7,2.4c-2.4-1-2.1-6-2.4-8c-0.5-4.3,0.6-4.5,0.6-4.5c2.3-3.9,2.2-7.8,2.1-9.5
		c-0.4-5.1-4.1-6.1-4.1-6.1c-0.5-0.1-1.9,0.5-1.9,0.5c-4.4-1-5.7-0.3-8.1,0.5c-3.5,1.2-5.4,3.7-6.8,7.1c-2.3,5.6-3.5,11.1,0.4,16.2
		c0.4,0.5,0.8,1,1.2,1.4c0.8,0.7,1.2,1.7-0.5,2.6c0,0-3.5,3-10.8,3.4c-8.6,0.5-7.4-9.4-7.4-9.4c-0.1-2-0.1-4,0.1-5.9
		c0.2-2.8,0.3-5.7,0-8.5c-0.3-2.1-0.7-5.1-2.7-6.4c-1.6-1-3.9-0.6-5.6,0c-2.6,0.9-4.6,2.8-5.8,3.2c-1.2,0.4-2-6.2-2-6.2
		c-0.7-8.3-5.7-7.5-5.7-7.5c-1.7,0-3.5,0.4-5,1.1c-5.7,2.6-9.5,7.4-12.7,12.6c-1.5,2.6-3.1,5.9-4.8,8.4c0,0-2.5,2.8,0.3,4
		c0,0,3.2,1.8,4.9-2.3c1.2-3,2.3-6,3.9-8.8c1.8-3.2,4.4-6.3,7.3-8.5c1.4-1.1,4.2-2.3,5.8-0.8c0.9,0.8,1.4,1.9,1.7,3.1
		c1,4.5,0.8,9.2,0.3,13.7c-0.4,4.3-1,8.5-1.6,12.7c-0.2,1.4-0.5,2.8-0.6,4.2c-0.5,5.3-0.5,5.9,1.6,6.4s2.9-0.8,3.3-2.1
		c0.3-1.4,3.2-12.8,4.3-19.4c0.5-3.1,1.9-9,5.8-9.5c2.6-0.4,2.6,4.4,2.6,6.1c0.1,4,0,8.1,0,12.2c0,3.6,1.3,7.4,4.6,9.4
		s6.9,2.2,10.4,1.7c3.3-0.5,6.5-1.4,9.5-2.9c3-1.6,5.6-3.8,8.2-6c0.5-0.4,1.3-1.2,2-1.5c1.6-0.5,1.9,2.7,2.2,3.6
		c1.1,3.1,4.5,5.7,7.9,4.5c1.5-0.5,3.2-1.5,4.5-2.4c4.3-3.1,6.5-8.1,8.2-10.4c1.7-2.3,2.6-0.4,2.6,2.2c-0.1,2.6,0.3,4.1,0.3,4.1
		c0.7,2.8,1.6,6.4,4.3,7.9c1.6,0.9,3.1,1.2,4.7,0.2c1.7-1.1,3.2-2.4,4.4-4.1c1.2-1.6,2.1-3.7,3.6-5.1c0,0,1.3-1.2,2.1,0.9
		c0.9,2.1,5.9,4.5,10.6-1.1c1.8-2.2,2.7-4.4,3.6-4.7c1.5-0.5,1.8,1.5,2.1,2.5c1.5,5.3,6.5,8.6,11.9,6.7c2.4-0.9,4.1-2.9,5.6-4.9
		c1.7-2.2,3.2-4.5,4.1-7.1c0.8-2.3,1.9-1.9,2.8-1.6c0.9,0.3,2,0,4.6,0.1c2.6,0,1.6,2.8,1.8,10.4c0.1,7.5,5.5,9.5,5.5,9.5
		c5.1,1.8,10.1,0.3,14.8-2.1c1.6-0.8,3.2-1.6,4.6-2.7c0.6-0.5,1.2-1,2-1.2c0.3-0.1,1.8-0.3,1.9,0.4c1.1,10.8,12.7,12.2,12.7,12.2
		c4.2,0.6,9.6-0.8,9.6-0.8s15.5-1.9,31.2-23.5c2.8-3.8,3.1-4.9,3.1-4.9C1109.4,126.8,1107.2,126.4,1107.2,126.4z M930.5,129
		c-2.7,9.6-6.4,8.5-6.4,8.5c-2.2-0.8-2.2-5.7,0.3-11.9c2.5-6.2,7.5-5.2,7.5-5.2C933.1,120.9,933.2,119.4,930.5,129z M839.9,146.5
		c-1.8,0.6-3.1,2.1-4.4,3.3c-1.5,1.5-3.1,2.9-4.8,4.1c-1.3,1-2.8,2.2-4.5,2.7c-1.5,0.5-1.8-0.4-2.1-1.7c-0.4-1.5-0.7-12.6-1-15.9
		c-0.2-3.3,0-7,0-9.1c0-1.1-0.7-1.8-1.7-2.1c-1.2-0.4-2.1-0.1-3.2,0.5c-0.9,0.6-1.3,2-1.7,2.9c-0.9,2.1-1.9,4-3.1,6
		c-1,1.8-1.9,3.7-2.9,5.5c-1.1,2.2-2.5,4.7-4.5,6.3c-0.8,0.6-2.2,1.2-3.2,0.9c-2.4-0.9,0.9-11.4,2.2-14.3c0.5-1.1,0.8-2.3-0.2-3.2
		c-1.1-1.1-2.3-1.2-3.8-1.1c-1.1,0.1-3.2,4.7-5.6,7.9c-2.3,3.2-3.8,4.1-6.5,3.1s1.3-7.9,2.2-9.9s0.6-2.7-2.2-3.7
		c-2.9-1-5.3,1.6-5.3,1.6c-5.4,3-2.2,10.9-1.6,12.5c0.6,1.6,0.1,2.1-2.7,7c-7.9,13.3-12.9,13.9-12.9,13.9c-3.1,0.1-3.4-6.6-3.7-10.2
		c-0.3-3.7,0-3.6,0.9-5.2c1-1.6,4.4-4.6,4.4-4.6c16.9-19.3,17.5-48.7,17.8-55.5s-4.2-6.5-6.9-6.5c-2.8,0-6.7,1.2-10.3,10
		c-11.8,29.7-8.9,46.3-10.2,52.7c0,0-0.1,1.2-0.2,2.1c-0.1,0.9-0.1,1.6-1.8,3c-1.7,1.3-7,4.6-7,4.6c-10.5,6.9-18.4,3.1-18.4,3.1
		c-3.8-2-5-7.3-5.3-11.2c-0.1-1.3-0.1-2.8,0.1-4.1c0.2-1.3,0.8-4.1-0.8-4.8c-0.7-0.3-1.6,0-2.3,0.1c-0.5,0.1-0.9,0.3-1.2,0.7
		c-0.5,0.7-0.7,1.9-0.9,2.7c-0.4,2.1,0,4.5,0.4,6.6c0.1,0.5,0.2,1,0.3,1.5c1.7,10.8,10.8,12.8,10.8,12.8c10.4,2.5,19.1-4.1,22.9-6.5
		c3.1-1.9,3.8,1.5,4.1,3.9c0.3,2.9,1.3,6.9,4.3,7.9c0,0,4.9,3.3,12.6-4.6c3.2-3,6.9-10.1,8.6-13.2c0.3-0.6,0.8-1.3,1.3-1.8
		c0.6-0.5,1.5,0,2.2,0c0.8,0,1.6,0.1,2.3,0c1.5-0.2,2.9-0.9,4.3-1.6c3-1.5,2.2-1,2.7,4.1s3.9,5.8,3.9,5.8c2.6,0.2,4.8-1.3,6.6-2.9
		c1.8-1.6,3.3-3.5,4.7-5.5c1-1.4,1.5-3,2.5-4.4c0.5-0.7,1.2-1.8,2.2-1.3c0.9,0.4,1,1.5,1.1,2.3c0.3,4.1,0.9,8.2,1,12.4
		c0,1.3,0.3,2.7,0,3.9c-0.3,1.5-2.3,2.1-3.6,2.6c-3.1,1.3-5.8,3.3-8.6,5.1c-2.4,1.6-4.8,3.2-6.8,5.3c-2.6,2.7-4.3,6.2-5,9.9
		c-0.8,4-0.9,8.4-0.1,12.4c0.4,2.2,1,4.4,1.9,6.4c1.6,3.8,4.1,7.1,8.2,8.2c10.3,2.8,15.3-18.7,16.8-25.8c1.4-6.5,1.3-13.1,1.6-19.6
		c0.1-1.7,1.2-2.5,2.6-3.2c4.4-2.1,8.4-4.9,11.7-8.4c0.4-0.4,4.2-4.6,3.4-5C841.6,147.4,841,146.1,839.9,146.5z M763.9,132.5
		c0.2-1.7,2.5-19.4,5.1-27.6s5.3-17.2,10.2-18.7s1.3,18.9-1.3,30c-2.7,11.1-8.5,19.6-10,21.5c-1.4,1.9-2.7,2.9-4,2.3
		C762.7,139.3,763.9,132.5,763.9,132.5z M820.1,171.8c-0.2,1.6-0.4,3.1-0.6,4.7c-1.1,7.8-3.1,15.5-6.3,22.8c-1,2.2-2.1,5.2-4.6,6.1
		c-3.2,1.1-5.9-2.5-7.2-4.9c-1.5-3-1.8-6.6-1.9-9.9c0-1.7,0.1-3.5,0.3-5.2c0.8-5.8,4.2-10.2,9-13.3c2.4-1.6,4.7-3.4,7.4-4.5
		C819.7,166.1,820.3,169.4,820.1,171.8z M700.1,153.1c-0.2-0.1-4.5-0.6-5.2-0.6c-3.4-0.3-10.1,0.5-13.7,0.9l-1.2,0.1
		c-1.4,0.2-5.5,0.1-5.5,0.1h-0.1c-0.3,0-0.5-0.1-0.7-0.4c-0.8-0.9-0.3-2.9,0.2-5.5c0.1-0.6,0.2-1.2,0.2-1.4c0.1-1.5,0.4-2.9,0.6-4.3
		c0.2-1.1,0.4-2.1,0.6-3.2c0.1-0.8,0.1-1.7,0.2-2.5c0.1-2,0.3-4,0.7-5.7c0.3-1.1,0.1-2.9-0.8-4c-0.5-0.6-1-0.9-1.7-0.9h-0.2
		c-2.3,0-3.2,3.4-4,6.2c-0.3,1.2-0.6,2.3-1,3.1s-0.8,1.7-1.3,2.6c-2.1,4.4-4.5,9.3-9.2,11.4c-0.2,0.1-0.4,0.1-0.7,0
		c-0.2-0.1-0.4-0.3-0.5-0.5c-1.9-3.6-0.9-7.1,0.1-10.4c0.6-2,1.2-4,1.1-5.8c0-0.8-0.8-2-1.6-2.8c-1-0.9-1.8-1.1-2.4-0.4
		c-1.1,1.3-1.3,2.5-1.6,4c-0.1,0.5-0.2,1-0.3,1.6c-0.2,0.9-0.3,1.8-0.4,2.7c-0.1,0.8-0.4,2.1-0.8,3.7c-0.1,0.5-0.3,1-0.4,1.5v0.1
		c-0.1,0.4-0.2,0.8-0.4,1.2c0,0.1-0.1,0.3-0.1,0.4c-0.1,0.3-0.2,0.7-0.3,1v0.1c-1.4,4.1-2.9,6.3-4.2,7.4l-0.7,0.5
		c-2.3,1.3-4.2-0.5-4.9-1.2c-1.3-1.3-1.4-5.8-1.6-7.7c-0.2-2-0.1-6-0.1-6c0.1-4.9,0.7-6.4-1.3-7c-2.6-0.7-3.2,1.8-5.1,4.5
		c-1.9,2.7-2.6,2.7-2.6,2.7c-1.2-0.3-0.7-5.5-0.6-6.4c0.2-3.1,0.7-6.1,0.9-9.2c0.3-4.1,0.4-8.2,1-12.2c0.3-1.7,0.6-3.3,1.1-5
		c0.4-1.5,1.1-3,0.5-4.6c-0.2-0.5-0.8-1.2-2.4-1.3c-1.6,0-2.1,1.8-3.7,6.7c-1.6,4.9-1.5,16.8-2.3,26.8c-0.5,6.3-1.7,23.7-12.5,18.5
		c-0.6-0.5-1.2-1-1.5-1.6c-1.7-3.5-1.9-7.4-2.1-10.9V139c0-0.2,0-0.4-0.1-0.7c-0.1-1.4-0.3-3.2,0.7-4.1c0.1-0.1,0.2-0.1,0.3-0.2
		c0.9-0.2,1.9-0.2,3-0.2s2.2,0.1,3.4,0.2c0.3,0,0.6,0,0.9,0.1c0.8,0.1,1.6,0.1,2.4,0.1c1.4,0,2.2-0.2,2.5-0.7c0.3-0.4,0.3-1.2,0-2.2
		c-0.4-1.4-1.2-1.6-2.6-1.6c-0.3,0-0.6,0-0.9,0c-1,0-5.7,0.1-6.1,0.1c-0.3,0-1.3,0-1.9-0.8c-0.5-0.6-0.7-1.5-0.4-2.8
		c0.1-0.5,0.1-1.2,0.1-1.8c0.3-2.2,0.6-4.8,1.3-6.5c0.1-0.2,0.3-1.3,0.5-2.1c0.6-3.2,2.1-7,2.3-8.2c0.4-2,0.6-3.1,0.9-3.5
		c0.3-0.4,0.2-1.2-0.1-2c-0.4-0.9-1.1-1.6-1.9-1.8c-0.6-0.2-1.1-0.3-1.4-0.2c-1.5,0.2-1.7,2.4-1.8,4.3c0,0.6-0.1,1.2-0.2,1.7
		c-0.2,1.4-0.6,2.7-1.1,3.9c-0.5,1.5-1,3-1.1,4.5c0,0.4-0.2,1.2-0.5,2.6c-0.4,1.7-0.8,3.5-1,4.5c-0.2,1.3-0.4,2.5-0.5,3.8
		c-0.1,0.6-0.1,1.1-0.2,1.7c-0.5,2.9-1.1,3.3-3.9,4c-0.6,0.2-1.2,0.3-1.8,0.4c-2.6,0.5-4,0.9-3.9,3.2c0.1,1.6,0.2,2,1.4,2.6
		c0.1,0,0.2,0.1,0.4,0.1c1.3,0,3.5-1.1,4.7-1.8c0.3-0.2,0.6-0.3,0.8-0.4c0.3-0.2,0.8,0,1,0.3c0.9,1,0.8,2.8,0.7,5c0,0.5,0,0.9,0,1.1
		c0.1,1.8,0.3,3.6,0.7,5.4c0.8,3.7,1.9,6.2,3.5,7.9l0,0l0,0c0.2,0.2,0.3,0.3,0.5,0.5c7.7,7.2,16.4-3.3,16.4-3.3
		c2.6,2.7,3.5-3,4.8-5.1c0.9-1.5,1.8-3.2,3-4.5c0.2-0.2,0.3-0.3,0.6-0.4c1.6-0.4,1.9,3,2,3.8c0.3,2.3,0.4,4.7,1,7
		c0.5,1.8,1.4,3.7,2.7,5.1c1,1.1,2.4,1.8,3.9,1.8c5.7,0,9.1-5.9,10.3-8c0.7,1.4,1.9,2.4,3.8,2.4c0.8,0,1.7-0.2,2.6-0.4
		c3-0.9,7.6-5.4,8.3-8.2c0.1-0.3,0.4-0.5,0.7-0.5c0.1,0,0.1,0,0.2,0c0.4,0.1,0.7,0.5,0.8,0.9c0.1,2.5,0.1,3.1-0.2,5.5
		c-0.1,0.5-0.1,0.9-0.1,1.3c-0.1,1.9-0.5,2.1-2.6,3c-0.4,0.2-0.8,0.3-1.2,0.5h-0.1c-3.8,1.5-9.5,3.8-12.7,12.3
		c-1.2,3.1-1.5,6.2-1.7,9.6c-0.3,4.1,0.1,7.5,1.2,11c1.7,5.2,6.7,10.5,10.4,10.9c1.1,0.1,2-0.2,2.7-1.1c1.9-2.1,2.6-8.3,3.4-15.5
		c0.8-7.1,1.8-15.2,4-22.6c0.8-2.7,6.7-3,10.5-3.3c0.9,0,1.6-0.1,2.1-0.1c0.8-0.1,1.5-0.1,2.1,0c1,0.1,1.8,0.4,2.4,0.6
		c0.6,0.2,1.1,0.4,1.7,0.4c0.7,0.1,1.4,0,2.3-0.3c0.6-0.2,1.2-0.3,1.7-0.3c1.4-0.2,5.8,0.1,6.1-1.6
		C701.7,154.2,701.5,153.7,700.1,153.1z M667.2,164.7c-0.6,5.8-1.1,11.3-2.3,17.2c-0.1,0.4-0.2,1.3-0.3,2.3
		c-0.5,5.9-1.1,10.3-3.4,10.1c-0.2,0-0.4-0.1-0.6-0.2c-5.1-2.3-6.5-12.5-5.3-20.8c1.3-8.5,8.5-13.5,11.1-13.3c0.1,0,0.2,0,0.3,0.1
		c0.5,0.1,0.8,0.6,0.7,1C667.4,162.4,667.3,163.5,667.2,164.7z M601.2,146.3c-0.6,0.1-0.9,0.5-1.4,0.9c-0.4,0.3-0.8,0.7-1.3,1
		c-1,0.5-1.8,1.3-2.6,2.2c-1.2,1.2-2.4,2.5-4.5,3c-0.7,0.1-1.4,0.2-2.1,0.2c-3.1,0-6.3-1.4-8.2-3.7c-1.4-1.6-3.5-4.5-3-6.8
		c1.8-2.3,3.5-5,5.1-7.9c0.8-1.4,1.6-3,2.5-5c6.1-13.6,7.5-20,5.6-25c-0.6-1.5-1.6-2.1-2.2-2.4c-1.6-0.6-3.3-1-5-0.1
		c-11,4.5-13.8,23.4-12.1,34.1c0,0.2,0,0.5,0.1,0.7c0.1,0.4,0.2,0.9,0.3,1.4c0,0.1,0.1,0.3,0.1,0.4c0.1,0.3,0.1,0.6,0.2,0.9l0,0
		c0.3,1.5,0.4,3-0.8,3.9c-0.4,0.3-0.8,0.7-1.3,1.1c-0.6,0.6-1.2,1.1-2,1.6c-0.7,0.4-1.3,0.9-1.9,1.4c-2.1,1.7-4.6,2.7-6.7,2.7
		c-1.4,0-2.5-0.5-3.2-1.4c-1.8-2.1-1.8-6-1.4-7.4c0.4-1.5,2.2-7,3.1-8.6c-0.1-3.6-2.1-5.7-6.3-6.5c-0.3-0.1-0.5-0.1-0.8-0.1
		c-0.9,0-1.9,0.2-2.8,0.5c-0.4,0.1-0.9,0.2-1.3,0.3c-9.9,2.6-15.3,10.9-17.6,15.5c-0.5,1-0.6,2.4-0.7,3.4c0,1.9,0.3,3.1,1,4
		c1.3,1.6,3,1.9,3,1.9h0.3l0.1,0.3c0.1,0.3,0.1,0.4-2.4,1.4c-0.1,0.1-0.2,0.1-0.2,0.1c-2.3,1.1-6,1.8-9.4,1.8
		c-6.7,0-10.5-2.4-11.7-7.6c-1.4-5.9-0.7-5.9,2.8-6.4c2.6-0.4,4.9-2.5,6.4-3.9c0.3-0.3,0.7-0.6,1-1c3.2-3,7.8-10.6,4.4-15.6
		c-0.9-1.3-2.2-2-3.8-2c-4.2,0-10.2,4.4-13.1,11.7c-0.2,0.5-0.5,1.2-0.9,1.9c-0.5,1-0.9,2.8-1.1,3.5c-0.1,0.4-0.6-0.1-1-0.2
		c-0.8-0.2-1.7,0.1-2.1,0.7c-0.4,0.6,0,1.6,0.4,2.6c0.2,0.4,1.9,1.7,2,2.1c0,0-1.2,5.1,2.1,11.8c1.1,2.3,3.1,3.4,5.3,4.8
		c0,0,3.9,1.7,6.7,1.7c1.4,0,2.9-0.1,4.1-0.2c0.4,0,0.8-0.1,1.1-0.1c4.7-0.4,9.3-2,13.5-3.6c2.6-1,5.4-2.5,7.2-4
		c0.3-0.2,0.8-0.6,1.3-1.1c1.2-1,2-1.8,2.4-2s0.8-0.3,1.2-0.3c1.7,0,2.9,1.8,3.8,3.1c0.2,0.2,0.3,0.4,0.4,0.6c1.6,2.1,4,2.5,5.7,2.5
		c0.4,0,0.9,0,1.3-0.1l0,0c2.8-0.3,5-1.2,7.4-3c0,0,0.5-0.4,1.1-0.8c1.4-1.1,3.9-3,4.6-3.5l0.3-0.2l0.2,0.3c0.6,0.7,2.5,3.9,5.2,6.4
		c2.6,2.5,4.3,3.1,7.8,3.9c0.6,0.1,1.3,0.2,2,0.2c5.5,0,10.4-4.6,12.2-8.9C601.9,148.5,601.7,146.8,601.2,146.3
		C601.3,146.3,601.3,146.3,601.2,146.3z M520,125.3L520,125.3c0.3,0,0.6,0.1,0.8,0.3c0.2,0.2,0.3,0.5,0.3,0.8
		c-0.9,5.3-4.6,9.9-9.6,11.7c-0.1,0-0.2,0-0.3,0c-0.2,0-0.4-0.1-0.6-0.2c-0.3-0.2-0.4-0.5-0.4-0.8
		C510.3,132.3,515.1,125.6,520,125.3z M551.4,132.8c-0.8,1.4-4.4,7.6-5.2,8.4c-2.1,2.2-7.5,7.5-12,7.5h-0.1l-0.1-0.3l0,0v0.3h-0.1
		c-0.4,0-0.8-0.4-0.9-0.8c-0.6-3.3,2.5-7.6,4.8-9.4c2.7-2.1,9.2-6.9,12.6-6.9c0.3,0,0.6,0.2,0.8,0.4
		C551.5,132.2,551.5,132.5,551.4,132.8z M575.4,130.9c0-0.3,0-0.6,0-0.8c0.2-18.7,12.7-28.2,12.3-20c-0.8,8.6-3.6,16.9-11.6,28.3
		C575.6,135.9,575.4,133.4,575.4,130.9z M488.6,133.3c0.5-0.1,11.2-2.7,11.9-2.8c1-0.1,6-1.5,5.9-3.2c0-0.3-0.5-1-4.7-1
		s-9.6,0.7-10,0.9h-0.1c-0.3,0-0.5,0-0.8,0c-0.2,0-0.4,0-0.6,0c-0.4,0-0.8,0-1.1-0.3c-0.3-0.3-0.4-0.7-0.3-1.5
		c0.1-1.4,1.4-22.5,2.5-33.5c0.1-0.6,0.1-1.2,0.2-1.9c0.3-2.7,0.6-5.6,0.6-8.6c0-0.2,0.1-0.7,0.8-4.3c0.3-1.7,0.7-3.5,0.7-4
		c0.1-1,0-1.6-0.1-2.1c-0.1-0.4-0.2-0.9-0.2-1.5c-0.3-0.8-0.8-0.8-1.5-0.9c-0.5-0.1-1.1-0.1-1.7-0.7c-1.5,0-2.5,0.9-3.1,1.7
		c-1.1,1.5-1.5,3.9-0.9,5.6c0,0,0,0,0,0.1c0,1.4,0,3-0.3,3.5l0,0c0,1.1-0.5,8.2-0.9,14.5c-0.3,4.8-0.6,9-0.6,9.5s-0.4,6.2-0.8,12.3
		c-0.4,6.2-0.8,12.5-0.9,13.3v0.1c0,0.1-0.2,0.2-0.3,0.1c-0.8,0-5.7,0.9-10,1.7c-4,0.7-7.4,1.3-7.9,1.3c-0.6,0-1.5,0.1-2.4,0.2
		c-1.3,0.2-2.7,0.3-3.3,0.2c-0.1,0-0.1-0.1-0.1-0.2c0-1.7,0.1-3.5,0.1-5.2c0.1-1.7,0.1-3.3,0.1-4.8c0-1.3,0.5-10,1.1-18.2
		c1-13.8,1.6-16,1.9-16.4c0-1.9,0.4-4.2,0.8-6.5c0.7-4.1,1.4-8.3,0-10.3c-0.5-0.6-1.2-1-2.2-1.1c-3-0.2-3.5,4.8-3.5,7.7v0.1
		c-0.2,0.9-2.2,23.4-2.2,27.9l0,0c0,0.6-0.2,4-1.5,27c0,0.3,0,0.3-5.3,0.5c-2.1,0.1-4.6,0.2-5,0.3l-0.1,0.1c-3.4,0.1-5.3,1-5.3,2.5
		c0,1.9,3.3,4.3,7,4.3c0.6,0,1.2-0.1,1.8-0.2c1.5-0.4,3-0.4,4.4-0.4h1.6c0.1,0,0.2,0.1,0.2,0.2c0,0.2,0,1-0.1,2.2
		c-0.1,2.1-0.3,5.4-0.3,6.6c0,1.1-0.1,1.9-0.1,2.6c-0.1,0.6-0.1,1.2-0.1,2c0.1,0.3,0,1.1-0.1,2.1c-0.2,2.3-0.6,6.3,0.6,7.6
		c0.3,0.3,0.6,0.4,1,0.4c4.2-0.1,4.1-2.7,4.1-7.4c0-1.6-0.1-3.4,0.1-5.4l0.1-1.3c0.2-3.5,0.4-7.1,0.4-10.4c0-0.1,0.1-0.1,0.1-0.2
		c0.1,0,6.4-1.4,23.7-4.1c0.1,0,0.2,0,0.2,0.1c0.3,1,0.3,2,0.3,3.1c0,0.5,0,1.1,0,1.6c0,1.1,0.7,8.7,0.9,11.9v0.2l0,0
		c-0.2,1.1,0.4,3.8,0.5,4.1l0,0c0.4,1.4,1,11.7,1,12.2c-0.2,1.4-0.1,2.4,0.4,2.9c0.3,0.3,0.7,0.5,1.2,0.5c1.5,0,3.4-1.3,3.6-1.5
		c0.7-1,0.7-2.9,0.3-4.3l0,0c0-1.7-0.4-6.3-0.6-9c-0.1-1.3-0.2-2.1-0.2-2.4c-0.2-0.5-0.5-3.3-0.9-18c0-1.2-0.1-2.1-0.1-2.4
		C488.4,133.4,488.5,133.3,488.6,133.3z"/>
</g>
</svg>
